<svg width="366" height="366" viewBox="0 0 366 366" fill="none" xmlns="http://www.w3.org/2000/svg">
<path d="M213.5 45.75V106.75C213.5 110.795 215.107 114.673 217.967 117.533C220.827 120.393 224.706 122 228.75 122H289.75" stroke="#FF0000" stroke-width="22.875" stroke-linecap="round" stroke-linejoin="round"/>
<path d="M259.25 320.25H106.75C98.6613 320.25 90.9035 317.037 85.1836 311.317C79.4637 305.597 76.2504 297.839 76.2504 289.75V76.25C76.2504 68.1609 79.4637 60.4031 85.1836 54.6832C90.9035 48.9634 98.6613 45.75 106.75 45.75H213.5L289.75 122V289.75C289.75 297.839 286.537 305.597 280.817 311.317C275.097 317.037 267.339 320.25 259.25 320.25Z" stroke="#FF0000" stroke-width="22.875" stroke-linecap="round" stroke-linejoin="round"/>
<path d="M183 167.749V259.249" stroke="#FF0000" stroke-width="22.875" stroke-linecap="round" stroke-linejoin="round"/>
<path d="M137.25 213.499L183 167.749L228.75 213.499" stroke="#FF0000" stroke-width="22.875" stroke-linecap="round" stroke-linejoin="round"/>
</svg>
